<svg width="20" height="20" viewBox="0 0 20 20" fill="none" xmlns="http://www.w3.org/2000/svg">
<g opacity="0.6">
<path d="M10 3.33333C6.33337 3.33333 3.33337 6.33333 3.33337 10C3.33337 13.6667 6.33337 16.6667 10 16.6667C13.6667 16.6667 16.6667 13.6667 16.6667 10C16.6667 6.33333 13.6667 3.33333 10 3.33333ZM10 15.8333C6.79171 15.8333 4.16671 13.2083 4.16671 10C4.16671 6.79167 6.79171 4.16667 10 4.16667C13.2084 4.16667 15.8334 6.79167 15.8334 10C15.8334 13.2083 13.2084 15.8333 10 15.8333Z" fill="white"/>
<path d="M10 8.75C9.75004 8.75 9.58337 8.91667 9.58337 9.16667V13.3333C9.58337 13.5417 9.75004 13.75 10 13.75C10.25 13.75 10.4167 13.5833 10.4167 13.3333V9.16667C10.4167 8.95833 10.25 8.75 10 8.75ZM10 6.25C9.75004 6.25 9.58337 6.45833 9.58337 6.66667V7.5C9.58337 7.75 9.75004 7.91667 10 7.91667C10.25 7.91667 10.4167 7.70833 10.4167 7.5V6.66667C10.4167 6.41667 10.25 6.25 10 6.25Z" fill="white"/>
</g>
</svg>
